:SAMPLES-PER-SECOND 30
:FULLY-SPECIFIED
:DEGREES
370
root  29.2015 18.491 4.57594 139.192 67.9418 6.1237
RightUpLeg  158.764 -15.6197 0.755145
RightLeg  108.121 3.25393 -7.8908
RightFoot  -21.9171 0.817021 10.9898
RightToes  3.49245e-010 0 -3.6325e-017
Spine  -84.5754 -21.6182 -17.7646
Spine1  11.9143 1.97772 7.3433
HEad  -39.8886 -3.93797 -8.04865
LeftShoulder1  0.861481 -11.347 3.01614
LeftArm  -61.292 -31.501 -9.25215
LeftForeArm  9.72597 -73.6466 -44.3932
LeftHand  -0.188752 2.10933 6.41698
RightShoulder  -0.372475 5.96153 -14.2376
RightArm  -53.6516 6.13544 10.3904
RightForeArm  15.0813 77.4516 80.4626
RightHand  -0.857079 5.68032 -9.27259
LeftUpLeg  167.783 -14.9073 -27.1293
LeftLeg  100.583 -0.94668 2.78209
LeftFoot  -32.7695 -1.08154 -6.75679
LeftToes  -2.21735e-009 9.83027e-011 -4.04511e-011
371
root  29.7396 18.7999 4.41586 144.274 64.4936 13.1973
RightUpLeg  155.447 -19.9936 1.74377
RightLeg  110.503 3.23967 -6.91542
RightFoot  -9.91359 0.0185011 10.0155
RightToes  3.49245e-010 0 -3.6325e-017
Spine  -81.5491 -25.0533 -21.366
Spine1  12.4327 -0.0651347 4.90692
HEad  -39.904 -4.02297 -7.23864
LeftShoulder1  0.903565 -12.2156 3.07667
LeftArm  -60.5051 -31.426 -9.11402
LeftForeArm  9.64386 -73.5797 -44.1244
LeftHand  -0.198912 1.90238 6.40515
RightShoulder  -0.306559 5.46731 -13.625
RightArm  -52.6865 5.93405 11.8044
RightForeArm  19.1472 77.5592 83.3597
RightHand  -0.72457 4.60097 -8.69667
LeftUpLeg  173.849 -18.4638 -28.303
LeftLeg  99.6003 -0.928449 2.9487
LeftFoot  -34.1382 -1.11125 -6.52524
LeftToes  -2.21735e-009 9.83027e-011 -4.04511e-011
372
root  30.4034 19.3431 4.41653 140.702 62.3739 12.1369
RightUpLeg  154.134 -19.5642 0.635455
RightLeg  110.623 2.62841 -5.27497
RightFoot  1.72102 -0.196955 0.949858
RightToes  3.49245e-010 0 -3.6325e-017
Spine  -78.4073 -26.2939 -24.6544
Spine1  12.0889 -0.563988 3.75038
HEad  -40.141 -4.00868 -6.51755
LeftShoulder1  0.887156 -12.0964 3.14445
LeftArm  -59.9839 -31.3411 -9.36963
LeftForeArm  10.8898 -73.9146 -45.3318
LeftHand  -0.200494 1.99809 6.62929
RightShoulder  -0.20542 5.32356 -12.3806
RightArm  -51.9464 6.4648 11.8495
RightForeArm  20.6571 77.5895 84.4471
RightHand  -0.740793 5.21624 -8.39367
LeftUpLeg  179.552 -18.6221 -30.6657
LeftLeg  98.5415 -0.89804 3.11022
LeftFoot  -35.476 -1.21633 -6.68839
LeftToes  -2.21735e-009 9.83027e-011 -4.04511e-011
373
root  30.8838 19.9984 4.80335 118.301 68.5649 -7.53667
RightUpLeg  159.511 -7.80269 -2.56097
RightLeg  106.415 0.240925 0.322912
RightFoot  -0.840135 -0.195866 2.20806
RightToes  3.49245e-010 0 -3.6325e-017
Spine  -77.3832 -19.7426 -22.9547
Spine1  11.4336 3.13092 6.63747
HEad  -39.9278 -3.26931 -6.60871
LeftShoulder1  0.951192 -11.9796 2.62429
LeftArm  -60.142 -31.0528 -9.30269
LeftForeArm  11.6417 -74.1675 -46.364
LeftHand  -0.201043 1.90742 6.48787
RightShoulder  -0.238281 5.78801 -12.6469
RightArm  -51.546 5.90509 11.7743
RightForeArm  22.2483 77.6175 86.1774
RightHand  -0.721087 5.08758 -8.27695
LeftUpLeg  178.1 -7.46309 -31.0495
LeftLeg  98.9287 -0.89575 3.04097
LeftFoot  -35.4185 -1.1784 -6.52486
LeftToes  -2.21735e-009 9.83027e-011 -4.04511e-011
374
root  31.418 20.4438 4.66385 109.039 71.3334 -13.3118
RightUpLeg  162.314 -2.64731 -1.18036
RightLeg  101.16 -0.136964 1.7581
RightFoot  -4.86036 -0.336713 5.31402
RightToes  3.49245e-010 0 -3.6325e-017
Spine  -73.8387 -15.4639 -21.2267
Spine1  12.0566 3.55226 5.11164
HEad  -40.0555 -3.24718 -5.62107
LeftShoulder1  0.925231 -12.4285 3.0097
LeftArm  -60.6002 -30.0541 -9.50642
LeftForeArm  13.2662 -74.56 -47.9622
LeftHand  -0.208869 1.96357 6.85933
RightShoulder  -0.276994 6.01973 -13.0445
RightArm  -51.4761 5.79147 11.7744
RightForeArm  21.9617 77.6115 86.4886
RightHand  -0.783993 5.07336 -8.98117
LeftUpLeg  -179.285 -3.21845 -28.81
LeftLeg  98.5701 -0.969597 3.59958
LeftFoot  -35.4731 -1.15094 -6.38333
LeftToes  -2.21735e-009 9.83027e-011 -4.04511e-011
375
root  31.8132 20.526 4.53053 109.171 72.9318 -12.2722
RightUpLeg  161.91 -0.281285 -0.134066
RightLeg  95.2164 0.287065 0.320131
RightFoot  -8.35336 -0.227949 6.31627
RightToes  3.49245e-010 0 -3.6325e-017
Spine  -72.4164 -13.9731 -20.1859
Spine1  12.914 2.76491 3.69608
HEad  -40.141 -2.81506 -4.89223
LeftShoulder1  0.890398 -12.3754 3.23431
LeftArm  -61.3035 -29.7317 -9.7458
LeftForeArm  14.1481 -74.7371 -48.7109
LeftHand  -0.228269 1.60237 6.84944
RightShoulder  -0.316225 5.98299 -13.5304
RightArm  -51.8473 5.92139 11.9303
RightForeArm  22.0335 77.6127 86.4894
RightHand  -0.85112 5.67381 -9.22434
LeftUpLeg  -177.997 -2.81989 -27.0983
LeftLeg  98.676 -1.04576 3.96104
LeftFoot  -35.5983 -1.21608 -6.65426
LeftToes  -2.21735e-009 9.83027e-011 -4.04511e-011
376
root  32.3107 20.1539 4.38967 100.394 75.8604 -14.996
RightUpLeg  165.97 1.42797 2.2431
RightLeg  90.6593 0.212204 2.38226
RightFoot  -10.8769 -0.0939048 6.43876
RightToes  3.49245e-010 0 -3.6325e-017
Spine  -66.5952 -9.69986 -17.351
Spine1  13.7992 2.85596 1.90483
HEad  -39.9679 -2.37757 -4.79319
LeftShoulder1  0.930768 -11.8466 2.71758
LeftArm  -61.4362 -30.0071 -10.728
LeftForeArm  15.682 -74.9949 -49.7831
LeftHand  -0.223688 1.78288 7.01436
RightShoulder  -0.358594 6.08718 -13.9983
RightArm  -52.2836 6.28719 11.7677
RightForeArm  22.255 77.615 86.936
RightHand  -0.897765 5.46997 -9.87878
LeftUpLeg  -174.603 0.917097 -24.0129
LeftLeg  101.651 -1.22429 3.92001
LeftFoot  -36.1086 -1.3579 -7.17306
LeftToes  -2.21735e-009 9.83027e-011 -4.04511e-011
377
root  32.8501 19.7908 4.37671 61.5355 79.0268 -43.8407
RightUpLeg  176.449 5.53404 4.87122
RightLeg  86.0953 0.454724 5.41895
RightFoot  -12.554 -0.00912541 8.2864
RightToes  3.49245e-010 0 -3.6325e-017
Spine  -56.0883 -1.2771 -12.1756
Spine1  12.9507 5.33697 0.126579
HEad  -40.0949 -2.8081 -4.10523
LeftShoulder1  0.915096 -11.9938 2.89522
LeftArm  -61.9284 -29.8837 -11.6235
LeftForeArm  16.8312 -75.1409 -50.353
LeftHand  -0.200309 1.75527 6.21094
RightShoulder  -0.361915 6.12855 -14.0172
RightArm  -52.8322 5.64435 11.5213
RightForeArm  25.6878 77.6389 89.6952
RightHand  -0.851265 5.40479 -9.44105
LeftUpLeg  -170.489 10.7537 -20.5399
LeftLeg  106.639 -1.00541 2.11175
LeftFoot  -36.5622 -1.54626 -7.89061
LeftToes  -2.21735e-009 9.83027e-011 -4.04511e-011
378
root  33.3923 19.1829 4.31388 53.3281 81.3693 -47.5167
RightUpLeg  179.66 3.30622 6.23291
RightLeg  84.5746 0.65119 6.05095
RightFoot  -10.279 -0.0866173 6.8055
RightToes  3.49245e-010 0 -3.6325e-017
Spine  -50.3356 0.747316 -9.19147
Spine1  11.9263 5.04417 -1.81023
HEad  -40.1927 -3.03035 -3.89507
LeftShoulder1  0.909519 -12.2909 3.06166
LeftArm  -62.2197 -29.3957 -11.8375
LeftForeArm  18.0772 -75.4487 -51.9828
LeftHand  -0.194978 1.98587 6.41472
RightShoulder  -0.403195 6.3213 -14.4176
RightArm  -53.4108 4.10534 11.5719
RightForeArm  31.6587 77.561 96.1815
RightHand  -0.877769 5.36545 -9.76162
LeftUpLeg  -167.513 11.8224 -17.8885
LeftLeg  110.251 -0.822213 1.24979
LeftFoot  -37.2711 -1.82409 -8.88867
LeftToes  -2.21735e-009 9.83027e-011 -4.04511e-011
379
root  33.7394 18.2425 4.62834 93.7856 80.1692 -25.8404
RightUpLeg  160.215 1.42222 2.1338
RightLeg  86.4657 0.41953 4.86154
RightFoot  -7.28464 -0.0893789 0.899295
RightToes  3.49245e-010 0 -3.6325e-017
Spine  -72.2888 -6.24212 -14.0989
Spine1  15.1463 3.13588 1.14296
HEad  -40.2391 -3.88108 -4.35928
LeftShoulder1  0.946812 -11.8735 2.60854
LeftArm  -61.9906 -30.1428 -12.9806
LeftForeArm  20.0522 -75.7568 -53.5412
LeftHand  -0.198824 2.09123 6.74333
RightShoulder  -0.388365 6.52886 -14.146
RightArm  -53.6145 2.35838 9.95728
RightForeArm  36.5331 77.3492 101.925
RightHand  -0.868257 5.84106 -9.26408
LeftUpLeg  178.062 2.26411 -23.3765
LeftLeg  110.473 -0.757397 1.08372
LeftFoot  -38.1993 -2.12439 -9.84893
LeftToes  -2.21735e-009 9.83027e-011 -4.04511e-011
